<svg width="74" height="69" viewBox="0 0 74 69" fill="none" xmlns="http://www.w3.org/2000/svg">
<path d="M21.8889 34.5L33.2222 45L52.1111 27.5" stroke="#47FA7D" stroke-width="5" stroke-linecap="round" stroke-linejoin="round"/>
<path d="M3 34.5C3 30.3634 3.87944 26.2672 5.5881 22.4455C7.29676 18.6237 9.80118 15.1512 12.9584 12.2261C16.1156 9.30109 19.8637 6.98082 23.9888 5.3978C28.1138 3.81477 32.5351 3 37 3C41.4649 3 45.8862 3.81477 50.0112 5.3978C54.1363 6.98082 57.8844 9.30109 61.0416 12.2261C64.1988 15.1512 66.7032 18.6237 68.4119 22.4455C70.1206 26.2672 71 30.3634 71 34.5C71 42.8543 67.4179 50.8665 61.0416 56.7739C54.6654 62.6813 46.0174 66 37 66C27.9826 66 19.3346 62.6813 12.9584 56.7739C6.58213 50.8665 3 42.8543 3 34.5V34.5Z" stroke="#47FA7D" stroke-width="5" stroke-linecap="round"/>
</svg>
