<svg width="456" height="389" viewBox="0 0 456 389" fill="none" xmlns="http://www.w3.org/2000/svg">
<path d="M159.606 194.495C209.982 194.495 250.81 150.962 250.81 97.2477C250.81 43.5335 209.982 0 159.606 0C109.231 0 68.4027 43.5335 68.4027 97.2477C68.4027 150.962 109.231 194.495 159.606 194.495ZM223.449 218.807H211.55C195.731 226.557 178.132 230.963 159.606 230.963C141.081 230.963 123.552 226.557 107.663 218.807H95.7637C42.8942 218.807 0 264.544 0 320.917V352.523C0 372.656 15.3193 388.991 34.2013 388.991H230.075C228.365 383.824 227.653 378.354 228.223 372.808L233.068 326.54L233.923 318.106L239.552 312.104L294.63 253.376C277.173 232.331 251.879 218.807 223.449 218.807V218.807ZM255.726 329.199L250.881 375.543C250.097 383.293 256.225 389.827 263.422 388.915L306.815 383.749L405.072 278.979L353.984 224.505L255.726 329.199V329.199ZM451.03 204.296L424.025 175.502C417.399 168.436 406.568 168.436 399.942 175.502L373.008 204.22L370.087 207.335L421.246 261.809L451.03 230.052C457.657 222.91 457.657 211.438 451.03 204.296V204.296Z" fill="black"/>
</svg>
