<svg width="16" height="17" viewBox="0 0 16 17" fill="none" xmlns="http://www.w3.org/2000/svg">
<path d="M6.58824 0C5.58978 0 4.63221 0.421427 3.92619 1.17157C3.22017 1.92172 2.82353 2.93913 2.82353 4C2.82353 5.06087 3.22017 6.07828 3.92619 6.82843C4.63221 7.57857 5.58978 8 6.58824 8C7.5867 8 8.54427 7.57857 9.25029 6.82843C9.95631 6.07828 10.3529 5.06087 10.3529 4C10.3529 2.93913 9.95631 1.92172 9.25029 1.17157C8.54427 0.421427 7.5867 0 6.58824 0ZM3.76471 4C3.76471 3.20435 4.06219 2.44129 4.5917 1.87868C5.12122 1.31607 5.83939 1 6.58824 1C7.33708 1 8.05526 1.31607 8.58478 1.87868C9.11429 2.44129 9.41177 3.20435 9.41177 4C9.41177 4.79565 9.11429 5.55871 8.58478 6.12132C8.05526 6.68393 7.33708 7 6.58824 7C5.83939 7 5.12122 6.68393 4.5917 6.12132C4.06219 5.55871 3.76471 4.79565 3.76471 4V4Z" fill="#E3C046"/>
<path d="M1.89082 9.00002C1.64295 8.99896 1.39732 9.04991 1.16802 9.14994C0.938723 9.24996 0.730263 9.3971 0.554597 9.58291C0.378931 9.76872 0.239515 9.98954 0.144345 10.2327C0.0491745 10.4759 0.000121894 10.7367 0 11C0 12.691 0.784 13.966 2.00941 14.797C3.216 15.614 4.84235 16 6.58824 16C6.97412 16 7.35624 15.981 7.72706 15.943C7.50247 15.6459 7.30754 15.3249 7.14541 14.985C6.96282 14.995 6.77647 15 6.58824 15C4.95529 15 3.52282 14.636 2.51576 13.953C1.52753 13.283 0.941176 12.31 0.941176 11C0.941176 10.447 1.36282 10 1.89082 10H7.152C7.32518 9.64202 7.53318 9.30702 7.77129 9.00002H1.89176H1.89082Z" fill="#E3C046"/>
<path d="M11.7647 17C10.6414 17 9.56418 16.5259 8.76991 15.682C7.97564 14.8381 7.52942 13.6935 7.52942 12.5C7.52942 11.3065 7.97564 10.1619 8.76991 9.31802C9.56418 8.47411 10.6414 8 11.7647 8C12.888 8 13.9652 8.47411 14.7595 9.31802C15.5538 10.1619 16 11.3065 16 12.5C16 13.6935 15.5538 14.8381 14.7595 15.682C13.9652 16.5259 12.888 17 11.7647 17V17ZM12.352 15.005C12.3552 14.9209 12.3423 14.837 12.3142 14.7583C12.2861 14.6796 12.2433 14.6077 12.1884 14.547C12.1335 14.4863 12.0677 14.438 11.9948 14.405C11.9219 14.372 11.8435 14.355 11.7642 14.355C11.685 14.355 11.6066 14.372 11.5337 14.405C11.4608 14.438 11.395 14.4863 11.3401 14.547C11.2852 14.6077 11.2424 14.6796 11.2143 14.7583C11.1862 14.837 11.1733 14.9209 11.1765 15.005C11.1765 15.1708 11.2385 15.3297 11.3488 15.4469C11.4591 15.5642 11.6087 15.63 11.7647 15.63C11.9207 15.63 12.0703 15.5642 12.1807 15.4469C12.291 15.3297 12.3529 15.1708 12.3529 15.005H12.352ZM13.5097 11.453C13.5097 10.349 12.7351 9.503 11.7647 9.503C10.7784 9.503 10.0104 10.321 10.0207 11.458C10.0213 11.5237 10.0341 11.5885 10.0583 11.649C10.0826 11.7094 10.1177 11.7641 10.1619 11.8101C10.206 11.8561 10.2582 11.8923 10.3156 11.9169C10.3729 11.9414 10.4342 11.9537 10.496 11.953C10.5578 11.9523 10.6189 11.9388 10.6757 11.913C10.7326 11.8873 10.7841 11.8499 10.8274 11.803C10.8706 11.7561 10.9048 11.7006 10.9279 11.6397C10.9509 11.5788 10.9625 11.5137 10.9619 11.448C10.9562 10.869 11.3007 10.503 11.7647 10.503C12.2089 10.503 12.5675 10.895 12.5675 11.453C12.5675 11.655 12.5017 11.768 12.2287 11.997L11.968 12.212C11.4918 12.616 11.2941 12.929 11.2941 13.5C11.2939 13.6249 11.3377 13.7454 11.417 13.8378C11.4962 13.9301 11.6051 13.9876 11.7222 13.9989C11.8393 14.0102 11.9562 13.9745 12.0497 13.8988C12.1433 13.8231 12.2068 13.7129 12.2278 13.59L12.2381 13.434C12.2541 13.286 12.3322 13.18 12.5638 12.986L12.8245 12.771C13.3073 12.361 13.5087 12.039 13.5087 11.453H13.5097Z" fill="#E3C046"/>
</svg>
